<svg width="512" height="512" viewBox="0 0 512 512" fill="none" xmlns="http://www.w3.org/2000/svg">
  <!-- BASE SHIELD -->
  <path d="M256 30 
           C140 30 80 80 60 200 
           C60 360 170 460 256 500 
           C342 460 452 360 452 200 
           C432 80 372 30 256 30 Z" 
        fill="#C5A059" />
  
  <path d="M256 42 
           C150 42 95 85 75 195 
           C75 345 180 445 256 485 
           C332 445 437 345 437 195 
           C417 85 362 42 256 42 Z" 
        fill="#0D1216" />

  <!-- HELMET MASK -->
  <g transform="translate(130, 150)">
    <!-- Main Faceplate green outline style -->
    <!-- Left Hand Side -->
    <path d="M60 50 L115 50 V280 L60 220 Z" fill="#B6C3AC" />
    <path d="M60 50 L0 100 V200 L60 220 Z" fill="#B6C3AC" opacity="0.6" />
    
    <!-- Right Hand Side -->
    <path d="M192 50 L137 50 V280 L192 220 Z" fill="#B6C3AC" />
    <path d="M192 50 L252 100 V200 L192 220 Z" fill="#B6C3AC" opacity="0.6" />

    <!-- Forehead Triangle / Play Symbol -->
    <path d="M126 0 L220 0 L220 100 L126 50 Z" fill="#B6C3AC" />
    <!-- Center bar -->
    <path d="M115 50 H137 V320 L126 350 L115 320 Z" fill="#0D1216" />
  </g>
</svg>